<svg width="12" height="12" viewBox="0 0 12 12" fill="none" xmlns="http://www.w3.org/2000/svg">
<path d="M10.0411 9.93387C10.252 10.1447 10.5774 9.81928 10.3666 9.61303L8.6478 7.8897C9.2507 7.2226 9.58397 6.35512 9.5828 5.45595C9.5828 3.44387 7.94655 1.80762 5.93446 1.80762C3.92238 1.80762 2.28613 3.44387 2.28613 5.45595C2.28613 7.46803 3.92238 9.10428 5.93446 9.10428C6.84197 9.10428 7.68071 8.7697 8.32238 8.21512L10.0411 9.93387ZM2.74401 5.45595C2.74401 3.69595 4.17859 2.26595 5.93401 2.26595C7.69401 2.26595 9.12401 3.69595 9.12401 5.45595C9.12401 7.21595 7.69401 8.64595 5.93401 8.64595C4.17859 8.64595 2.74401 7.21595 2.74401 5.45595Z" fill="black"/>
</svg>
